<svg xmlns="http://www.w3.org/2000/svg" width="40" height="44" viewBox="-1 -1 40 44">
    <g fill="none" fill-rule="evenodd">
        <path fill="#18AD38" d="M23.765 38.438c1.042 0 1.891.848 1.891 1.89a1.893 1.893 0 0 1-1.89 1.89 1.893 1.893 0 0 1-1.892-1.89c0-.506.198-.982.556-1.338a1.87 1.87 0 0 1 1.335-.552zm6.407 0c1.042 0 1.89.848 1.89 1.89a1.893 1.893 0 0 1-1.89 1.89 1.893 1.893 0 0 1-1.891-1.89c0-.506.198-.982.556-1.338a1.87 1.87 0 0 1 1.335-.552zM18.39 18.133a1.251 1.251 0 0 1-1.991 1.512 7.69 7.69 0 0 0-8.135-2.788 7.73 7.73 0 0 0-5.733 7.456v2.593h2.594c.642 0 1.18.487 1.244 1.126l1.169 11.687h5.425l.441-4.397a1.24 1.24 0 0 1 1.368-1.12 1.25 1.25 0 0 1 1.119 1.369l-.553 5.523a1.25 1.25 0 0 1-1.244 1.125H6.407a1.25 1.25 0 0 1-1.244-1.125L3.994 29.406H1.281a1.25 1.25 0 0 1-1.25-1.25v-3.843a10.233 10.233 0 0 1 7.59-9.872 10.184 10.184 0 0 1 10.769 3.692zm19.256 1.443c.648.236.983.954.747 1.602l-1.382 3.8c-.009.03-.02.058-.031.087l-3.404 9.363a2.547 2.547 0 0 1-2.36 1.667h-9.188A2.53 2.53 0 0 1 19.7 34.56l-2.773-7.76c-.309-.711-.229-1.605.24-2.318a2.524 2.524 0 0 1 2.113-1.138h15.662l1.102-3.021a1.25 1.25 0 0 1 1.602-.748zm-3.615 6.269h-14.75c.01.024-.008.09 0 .115l2.746 7.688 9.178-.053 2.826-7.75zM10.251 0a6.382 6.382 0 0 1 6.374 6.375 6.382 6.382 0 0 1-6.375 6.375 6.382 6.382 0 0 1-6.375-6.375A6.382 6.382 0 0 1 10.25 0zm0 2.5a3.879 3.879 0 0 0-3.876 3.875 3.879 3.879 0 0 0 3.875 3.875 3.879 3.879 0 0 0 3.875-3.875A3.879 3.879 0 0 0 10.25 2.5z"/>
    </g>
</svg>
